<svg xmlns="http://www.w3.org/2000/svg" xmlns:xlink="http://www.w3.org/1999/xlink" contentStyleType="text/css" data-diagram-type="CLASS" height="762px" preserveAspectRatio="none" style="width:1383px;height:762px;background:#FFFFFF;" version="1.1" viewBox="0 0 1383 762" width="1383px" zoomAndPan="magnify"><defs/><g><!--class ParkingLot--><g id="elem_ParkingLot"><rect codeLine="2" fill="#F1F1F1" height="162.0781" id="ParkingLot" rx="2.5" ry="2.5" style="stroke:#181818;stroke-width:0.5;" width="299.2803" x="281.01" y="7"/><ellipse cx="389.2058" cy="23" fill="#ADD1B2" rx="11" ry="11" style="stroke:#181818;stroke-width:1;"/><path d="M392.1746,28.6406 Q391.5964,28.9375 390.9558,29.0781 Q390.3152,29.2344 389.6121,29.2344 Q387.1121,29.2344 385.7839,27.5938 Q384.4714,25.9375 384.4714,22.8125 Q384.4714,19.6875 385.7839,18.0313 Q387.1121,16.375 389.6121,16.375 Q390.3152,16.375 390.9558,16.5313 Q391.6121,16.6875 392.1746,16.9844 L392.1746,19.7031 Q391.5496,19.125 390.9558,18.8594 Q390.3621,18.5781 389.7371,18.5781 Q388.3933,18.5781 387.7058,19.6563 Q387.0183,20.7188 387.0183,22.8125 Q387.0183,24.9063 387.7058,25.9844 Q388.3933,27.0469 389.7371,27.0469 Q390.3621,27.0469 390.9558,26.7813 Q391.5496,26.5 392.1746,25.9219 L392.1746,28.6406 Z " fill="#000000"/><text fill="#000000" font-family="sans-serif" font-size="14" lengthAdjust="spacing" textLength="74.3887" x="409.7058" y="27.8467">ParkingLot</text><line style="stroke:#181818;stroke-width:0.5;" x1="282.01" x2="579.2903" y1="39" y2="39"/><rect fill="#FFFFFF" fill-opacity="0.00000" height="6" style="stroke:#C82930;stroke-width:1;" width="6" x="289.01" y="49.6484"/><text fill="#000000" font-family="sans-serif" font-size="14" lengthAdjust="spacing" textLength="95.1016" x="301.01" y="55.9951">name : String</text><rect fill="#FFFFFF" fill-opacity="0.00000" height="6" style="stroke:#C82930;stroke-width:1;" width="6" x="289.01" y="65.9453"/><text fill="#000000" font-family="sans-serif" font-size="14" lengthAdjust="spacing" textLength="110.708" x="301.01" y="72.292">address : String</text><rect fill="#FFFFFF" fill-opacity="0.00000" height="6" style="stroke:#C82930;stroke-width:1;" width="6" x="289.01" y="82.2422"/><text fill="#000000" font-family="sans-serif" font-size="14" lengthAdjust="spacing" textLength="103.0039" x="301.01" y="88.5889">totalSpots : int</text><rect fill="#FFFFFF" fill-opacity="0.00000" height="6" style="stroke:#C82930;stroke-width:1;" width="6" x="289.01" y="98.5391"/><text fill="#000000" font-family="sans-serif" font-size="14" lengthAdjust="spacing" textLength="134.1826" x="301.01" y="104.8857">availableSpots : int</text><line style="stroke:#181818;stroke-width:0.5;" x1="282.01" x2="579.2903" y1="112.1875" y2="112.1875"/><ellipse cx="292.01" cy="125.8359" fill="#84BE84" rx="3" ry="3" style="stroke:#038048;stroke-width:1;"/><text fill="#000000" font-family="sans-serif" font-size="14" lengthAdjust="spacing" textLength="273.2803" x="301.01" y="129.1826">findNearestSpot(Vehicle) : ParkingSpot</text><ellipse cx="292.01" cy="142.1328" fill="#84BE84" rx="3" ry="3" style="stroke:#038048;stroke-width:1;"/><text fill="#000000" font-family="sans-serif" font-size="14" lengthAdjust="spacing" textLength="200.5254" x="301.01" y="145.4795">parkVehicle(Vehicle) : Ticket</text><ellipse cx="292.01" cy="158.4297" fill="#84BE84" rx="3" ry="3" style="stroke:#038048;stroke-width:1;"/><text fill="#000000" font-family="sans-serif" font-size="14" lengthAdjust="spacing" textLength="211.9961" x="301.01" y="161.7764">releaseSpot(Ticket) : Payment</text></g><!--class ParkingSpot--><g id="elem_ParkingSpot"><rect codeLine="12" fill="#F1F1F1" height="129.4844" id="ParkingSpot" rx="2.5" ry="2.5" style="stroke:#181818;stroke-width:0.5;" width="184.0469" x="187.63" y="246.08"/><ellipse cx="233.2223" cy="262.08" fill="#ADD1B2" rx="11" ry="11" style="stroke:#181818;stroke-width:1;"/><path d="M236.191,267.7206 Q235.6129,268.0175 234.9723,268.1581 Q234.3317,268.3144 233.6285,268.3144 Q231.1285,268.3144 229.8004,266.6738 Q228.4879,265.0175 228.4879,261.8925 Q228.4879,258.7675 229.8004,257.1113 Q231.1285,255.455 233.6285,255.455 Q234.3317,255.455 234.9723,255.6113 Q235.6285,255.7675 236.191,256.0644 L236.191,258.7831 Q235.566,258.205 234.9723,257.9394 Q234.3785,257.6581 233.7535,257.6581 Q232.4098,257.6581 231.7223,258.7363 Q231.0348,259.7988 231.0348,261.8925 Q231.0348,263.9863 231.7223,265.0644 Q232.4098,266.1269 233.7535,266.1269 Q234.3785,266.1269 234.9723,265.8613 Q235.566,265.58 236.191,265.0019 L236.191,267.7206 Z " fill="#000000"/><text fill="#000000" font-family="sans-serif" font-size="14" lengthAdjust="spacing" textLength="84.3623" x="253.7223" y="266.9267">ParkingSpot</text><line style="stroke:#181818;stroke-width:0.5;" x1="188.63" x2="370.6769" y1="278.08" y2="278.08"/><rect fill="#FFFFFF" fill-opacity="0.00000" height="6" style="stroke:#C82930;stroke-width:1;" width="6" x="195.63" y="288.7284"/><text fill="#000000" font-family="sans-serif" font-size="14" lengthAdjust="spacing" textLength="75.1201" x="207.63" y="295.0751">spotId : int</text><rect fill="#FFFFFF" fill-opacity="0.00000" height="6" style="stroke:#C82930;stroke-width:1;" width="6" x="195.63" y="305.0253"/><text fill="#000000" font-family="sans-serif" font-size="14" lengthAdjust="spacing" textLength="65.1602" x="207.63" y="311.372">level : int</text><rect fill="#FFFFFF" fill-opacity="0.00000" height="6" style="stroke:#C82930;stroke-width:1;" width="6" x="195.63" y="321.3222"/><text fill="#000000" font-family="sans-serif" font-size="14" lengthAdjust="spacing" textLength="146.3369" x="207.63" y="327.6689">isOccupied : boolean</text><line style="stroke:#181818;stroke-width:0.5;" x1="188.63" x2="370.6769" y1="334.9706" y2="334.9706"/><ellipse cx="198.63" cy="348.6191" fill="#84BE84" rx="3" ry="3" style="stroke:#038048;stroke-width:1;"/><text fill="#000000" font-family="sans-serif" font-size="14" lengthAdjust="spacing" textLength="158.0469" x="207.63" y="351.9657">assignVehicle(Vehicle)</text><ellipse cx="198.63" cy="364.9159" fill="#84BE84" rx="3" ry="3" style="stroke:#038048;stroke-width:1;"/><text fill="#000000" font-family="sans-serif" font-size="14" lengthAdjust="spacing" textLength="115.5479" x="207.63" y="368.2626">removeVehicle()</text></g><!--class Vehicle--><g id="elem_Vehicle"><rect codeLine="20" fill="#F1F1F1" height="80.5938" id="Vehicle" rx="2.5" ry="2.5" style="stroke:#181818;stroke-width:0.5;" width="209.3057" x="7" y="460.71"/><ellipse cx="81.8262" cy="476.71" fill="#ADD1B2" rx="11" ry="11" style="stroke:#181818;stroke-width:1;"/><path d="M84.7949,482.3506 Q84.2168,482.6475 83.5762,482.7881 Q82.9355,482.9444 82.2324,482.9444 Q79.7324,482.9444 78.4043,481.3038 Q77.0918,479.6475 77.0918,476.5225 Q77.0918,473.3975 78.4043,471.7413 Q79.7324,470.085 82.2324,470.085 Q82.9355,470.085 83.5762,470.2413 Q84.2324,470.3975 84.7949,470.6944 L84.7949,473.4131 Q84.1699,472.835 83.5762,472.5694 Q82.9824,472.2881 82.3574,472.2881 Q81.0137,472.2881 80.3262,473.3663 Q79.6387,474.4288 79.6387,476.5225 Q79.6387,478.6163 80.3262,479.6944 Q81.0137,480.7569 82.3574,480.7569 Q82.9824,480.7569 83.5762,480.4913 Q84.1699,480.21 84.7949,479.6319 L84.7949,482.3506 Z " fill="#000000"/><text fill="#000000" font-family="sans-serif" font-size="14" lengthAdjust="spacing" textLength="51.1533" x="102.3262" y="481.5567">Vehicle</text><line style="stroke:#181818;stroke-width:0.5;" x1="8" x2="215.3057" y1="492.71" y2="492.71"/><rect fill="#FFFFFF" fill-opacity="0.00000" height="6" style="stroke:#C82930;stroke-width:1;" width="6" x="15" y="503.3584"/><text fill="#000000" font-family="sans-serif" font-size="14" lengthAdjust="spacing" textLength="139.2822" x="27" y="509.7051">licensePlate : String</text><rect fill="#FFFFFF" fill-opacity="0.00000" height="6" style="stroke:#C82930;stroke-width:1;" width="6" x="15" y="519.6553"/><text fill="#000000" font-family="sans-serif" font-size="14" lengthAdjust="spacing" textLength="183.3057" x="27" y="526.002">vehicleType : VehicleType</text><line style="stroke:#181818;stroke-width:0.5;" x1="8" x2="215.3057" y1="533.3038" y2="533.3038"/></g><!--class VehicleType--><g id="elem_VehicleType"><rect codeLine="25" fill="#F1F1F1" height="96.8906" id="VehicleType" rx="2.5" ry="2.5" style="stroke:#181818;stroke-width:0.5;" width="117.4902" x="614.91" y="39.6"/><ellipse cx="629.91" cy="55.6" fill="#EB937F" rx="11" ry="11" style="stroke:#181818;stroke-width:1;"/><path d="M634.0194,61.6 L626.3006,61.6 L626.3006,49.2094 L634.0194,49.2094 L634.0194,51.3656 L628.7538,51.3656 L628.7538,54.0375 L633.5194,54.0375 L633.5194,56.1938 L628.7538,56.1938 L628.7538,59.4438 L634.0194,59.4438 L634.0194,61.6 Z " fill="#000000"/><text fill="#000000" font-family="sans-serif" font-size="14" lengthAdjust="spacing" textLength="85.4902" x="643.91" y="60.4467">VehicleType</text><line style="stroke:#181818;stroke-width:0.5;" x1="615.91" x2="731.4002" y1="71.6" y2="71.6"/><text fill="#000000" font-family="sans-serif" font-size="14" lengthAdjust="spacing" textLength="29.0801" x="620.91" y="88.5951">CAR</text><text fill="#000000" font-family="sans-serif" font-size="14" lengthAdjust="spacing" textLength="31.7598" x="620.91" y="104.892">BIKE</text><text fill="#000000" font-family="sans-serif" font-size="14" lengthAdjust="spacing" textLength="47.4824" x="620.91" y="121.1889">TRUCK</text><line style="stroke:#181818;stroke-width:0.5;" x1="615.91" x2="731.4002" y1="128.4906" y2="128.4906"/></g><!--class PaymentSystem--><g id="elem_PaymentSystem"><rect codeLine="32" fill="#F1F1F1" height="80.5938" id="PaymentSystem" rx="2.5" ry="2.5" style="stroke:#181818;stroke-width:0.5;" width="229.1914" x="407.06" y="270.53"/><ellipse cx="460.3427" cy="286.53" fill="#ADD1B2" rx="11" ry="11" style="stroke:#181818;stroke-width:1;"/><path d="M463.3115,292.1706 Q462.7333,292.4675 462.0927,292.6081 Q461.4521,292.7644 460.749,292.7644 Q458.249,292.7644 456.9208,291.1238 Q455.6083,289.4675 455.6083,286.3425 Q455.6083,283.2175 456.9208,281.5613 Q458.249,279.905 460.749,279.905 Q461.4521,279.905 462.0927,280.0613 Q462.749,280.2175 463.3115,280.5144 L463.3115,283.2331 Q462.6865,282.655 462.0927,282.3894 Q461.499,282.1081 460.874,282.1081 Q459.5302,282.1081 458.8427,283.1863 Q458.1552,284.2488 458.1552,286.3425 Q458.1552,288.4363 458.8427,289.5144 Q459.5302,290.5769 460.874,290.5769 Q461.499,290.5769 462.0927,290.3113 Q462.6865,290.03 463.3115,289.4519 L463.3115,292.1706 Z " fill="#000000"/><text fill="#000000" font-family="sans-serif" font-size="14" lengthAdjust="spacing" textLength="114.126" x="480.8427" y="291.3767">PaymentSystem</text><line style="stroke:#181818;stroke-width:0.5;" x1="408.06" x2="635.2514" y1="302.53" y2="302.53"/><line style="stroke:#181818;stroke-width:0.5;" x1="408.06" x2="635.2514" y1="310.53" y2="310.53"/><ellipse cx="418.06" cy="324.1784" fill="#84BE84" rx="3" ry="3" style="stroke:#038048;stroke-width:1;"/><text fill="#000000" font-family="sans-serif" font-size="14" lengthAdjust="spacing" textLength="203.1914" x="427.06" y="327.5251">calculateFee(Ticket) : double</text><ellipse cx="418.06" cy="340.4753" fill="#84BE84" rx="3" ry="3" style="stroke:#038048;stroke-width:1;"/><text fill="#000000" font-family="sans-serif" font-size="14" lengthAdjust="spacing" textLength="188.8701" x="427.06" y="343.822">processPayment(Payment)</text></g><!--class Payment--><g id="elem_Payment"><rect codeLine="37" fill="#F1F1F1" height="96.8906" id="Payment" rx="2.5" ry="2.5" style="stroke:#181818;stroke-width:0.5;" width="268.915" x="380.2" y="452.57"/><ellipse cx="479.4476" cy="468.57" fill="#ADD1B2" rx="11" ry="11" style="stroke:#181818;stroke-width:1;"/><path d="M482.4163,474.2106 Q481.8382,474.5075 481.1976,474.6481 Q480.5569,474.8044 479.8538,474.8044 Q477.3538,474.8044 476.0257,473.1638 Q474.7132,471.5075 474.7132,468.3825 Q474.7132,465.2575 476.0257,463.6013 Q477.3538,461.945 479.8538,461.945 Q480.5569,461.945 481.1976,462.1013 Q481.8538,462.2575 482.4163,462.5544 L482.4163,465.2731 Q481.7913,464.695 481.1976,464.4294 Q480.6038,464.1481 479.9788,464.1481 Q478.6351,464.1481 477.9476,465.2263 Q477.2601,466.2888 477.2601,468.3825 Q477.2601,470.4763 477.9476,471.5544 Q478.6351,472.6169 479.9788,472.6169 Q480.6038,472.6169 481.1976,472.3513 Q481.7913,472.07 482.4163,471.4919 L482.4163,474.2106 Z " fill="#000000"/><text fill="#000000" font-family="sans-serif" font-size="14" lengthAdjust="spacing" textLength="61.9199" x="499.9476" y="473.4167">Payment</text><line style="stroke:#181818;stroke-width:0.5;" x1="381.2" x2="648.115" y1="484.57" y2="484.57"/><rect fill="#FFFFFF" fill-opacity="0.00000" height="6" style="stroke:#C82930;stroke-width:1;" width="6" x="388.2" y="495.2184"/><text fill="#000000" font-family="sans-serif" font-size="14" lengthAdjust="spacing" textLength="115.3496" x="400.2" y="501.5651">amount : double</text><rect fill="#FFFFFF" fill-opacity="0.00000" height="6" style="stroke:#C82930;stroke-width:1;" width="6" x="388.2" y="511.5153"/><text fill="#000000" font-family="sans-serif" font-size="14" lengthAdjust="spacing" textLength="144.1357" x="400.2" y="517.862">paymentTime : Date</text><rect fill="#FFFFFF" fill-opacity="0.00000" height="6" style="stroke:#C82930;stroke-width:1;" width="6" x="388.2" y="527.8122"/><text fill="#000000" font-family="sans-serif" font-size="14" lengthAdjust="spacing" textLength="242.915" x="400.2" y="534.1589">paymentMethod : PaymentMethod</text><line style="stroke:#181818;stroke-width:0.5;" x1="381.2" x2="648.115" y1="541.4606" y2="541.4606"/></g><!--class PaymentMethod--><g id="elem_PaymentMethod"><rect codeLine="43" fill="#F1F1F1" height="96.8906" id="PaymentMethod" rx="2.5" ry="2.5" style="stroke:#181818;stroke-width:0.5;" width="146.4268" x="767.44" y="39.6"/><ellipse cx="782.44" cy="55.6" fill="#EB937F" rx="11" ry="11" style="stroke:#181818;stroke-width:1;"/><path d="M786.5494,61.6 L778.8306,61.6 L778.8306,49.2094 L786.5494,49.2094 L786.5494,51.3656 L781.2838,51.3656 L781.2838,54.0375 L786.0494,54.0375 L786.0494,56.1938 L781.2838,56.1938 L781.2838,59.4438 L786.5494,59.4438 L786.5494,61.6 Z " fill="#000000"/><text fill="#000000" font-family="sans-serif" font-size="14" lengthAdjust="spacing" textLength="114.4268" x="796.44" y="60.4467">PaymentMethod</text><line style="stroke:#181818;stroke-width:0.5;" x1="768.44" x2="912.8668" y1="71.6" y2="71.6"/><text fill="#000000" font-family="sans-serif" font-size="14" lengthAdjust="spacing" textLength="38.7666" x="773.44" y="88.5951">CASH</text><text fill="#000000" font-family="sans-serif" font-size="14" lengthAdjust="spacing" textLength="39.8604" x="773.44" y="104.892">CARD</text><text fill="#000000" font-family="sans-serif" font-size="14" lengthAdjust="spacing" textLength="22.8184" x="773.44" y="121.1889">UPI</text><line style="stroke:#181818;stroke-width:0.5;" x1="768.44" x2="912.8668" y1="128.4906" y2="128.4906"/></g><!--class Ticket--><g id="elem_Ticket"><rect codeLine="50" fill="#F1F1F1" height="129.4844" id="Ticket" rx="2.5" ry="2.5" style="stroke:#181818;stroke-width:0.5;" width="154.2148" x="209.55" y="626.46"/><ellipse cx="261.2331" cy="642.46" fill="#ADD1B2" rx="11" ry="11" style="stroke:#181818;stroke-width:1;"/><path d="M264.2019,648.1006 Q263.6237,648.3975 262.9831,648.5381 Q262.3425,648.6944 261.6394,648.6944 Q259.1394,648.6944 257.8112,647.0538 Q256.4987,645.3975 256.4987,642.2725 Q256.4987,639.1475 257.8112,637.4913 Q259.1394,635.835 261.6394,635.835 Q262.3425,635.835 262.9831,635.9913 Q263.6394,636.1475 264.2019,636.4444 L264.2019,639.1631 Q263.5769,638.585 262.9831,638.3194 Q262.3894,638.0381 261.7644,638.0381 Q260.4206,638.0381 259.7331,639.1163 Q259.0456,640.1788 259.0456,642.2725 Q259.0456,644.3663 259.7331,645.4444 Q260.4206,646.5069 261.7644,646.5069 Q262.3894,646.5069 262.9831,646.2413 Q263.5769,645.96 264.2019,645.3819 L264.2019,648.1006 Z " fill="#000000"/><text fill="#000000" font-family="sans-serif" font-size="14" lengthAdjust="spacing" textLength="42.3486" x="281.7331" y="647.3067">Ticket</text><line style="stroke:#181818;stroke-width:0.5;" x1="210.55" x2="362.7648" y1="658.46" y2="658.46"/><rect fill="#FFFFFF" fill-opacity="0.00000" height="6" style="stroke:#C82930;stroke-width:1;" width="6" x="217.55" y="669.1084"/><text fill="#000000" font-family="sans-serif" font-size="14" lengthAdjust="spacing" textLength="84.1709" x="229.55" y="675.4551">ticketId : int</text><rect fill="#FFFFFF" fill-opacity="0.00000" height="6" style="stroke:#C82930;stroke-width:1;" width="6" x="217.55" y="685.4053"/><text fill="#000000" font-family="sans-serif" font-size="14" lengthAdjust="spacing" textLength="114.6318" x="229.55" y="691.752">vehicle : Vehicle</text><rect fill="#FFFFFF" fill-opacity="0.00000" height="6" style="stroke:#C82930;stroke-width:1;" width="6" x="217.55" y="701.7022"/><text fill="#000000" font-family="sans-serif" font-size="14" lengthAdjust="spacing" textLength="128.2148" x="229.55" y="708.0489">spot : ParkingSpot</text><rect fill="#FFFFFF" fill-opacity="0.00000" height="6" style="stroke:#C82930;stroke-width:1;" width="6" x="217.55" y="717.9991"/><text fill="#000000" font-family="sans-serif" font-size="14" lengthAdjust="spacing" textLength="114.3789" x="229.55" y="724.3457">startTime : Date</text><rect fill="#FFFFFF" fill-opacity="0.00000" height="6" style="stroke:#C82930;stroke-width:1;" width="6" x="217.55" y="734.2959"/><text fill="#000000" font-family="sans-serif" font-size="14" lengthAdjust="spacing" textLength="108.1445" x="229.55" y="740.6426">endTime : Date</text><line style="stroke:#181818;stroke-width:0.5;" x1="210.55" x2="362.7648" y1="747.9444" y2="747.9444"/></g><!--class PricingStrategy--><g id="elem_PricingStrategy"><rect codeLine="58" fill="#F1F1F1" height="64.2969" id="PricingStrategy" rx="2.5" ry="2.5" style="stroke:#181818;stroke-width:0.5;" width="427.3857" x="948.96" y="55.89"/><ellipse cx="1104.6929" cy="71.89" fill="#ADD1B2" rx="11" ry="11" style="stroke:#181818;stroke-width:1;"/><path d="M1107.6617,77.5306 Q1107.0835,77.8275 1106.4429,77.9681 Q1105.8023,78.1244 1105.0992,78.1244 Q1102.5992,78.1244 1101.271,76.4838 Q1099.9585,74.8275 1099.9585,71.7025 Q1099.9585,68.5775 1101.271,66.9213 Q1102.5992,65.265 1105.0992,65.265 Q1105.8023,65.265 1106.4429,65.4213 Q1107.0992,65.5775 1107.6617,65.8744 L1107.6617,68.5931 Q1107.0367,68.015 1106.4429,67.7494 Q1105.8492,67.4681 1105.2242,67.4681 Q1103.8804,67.4681 1103.1929,68.5463 Q1102.5054,69.6088 1102.5054,71.7025 Q1102.5054,73.7963 1103.1929,74.8744 Q1103.8804,75.9369 1105.2242,75.9369 Q1105.8492,75.9369 1106.4429,75.6713 Q1107.0367,75.39 1107.6617,74.8119 L1107.6617,77.5306 Z " fill="#000000"/><text fill="#000000" font-family="sans-serif" font-size="14" lengthAdjust="spacing" textLength="107.4199" x="1125.1929" y="76.7367">PricingStrategy</text><line style="stroke:#181818;stroke-width:0.5;" x1="949.96" x2="1375.3457" y1="87.89" y2="87.89"/><line style="stroke:#181818;stroke-width:0.5;" x1="949.96" x2="1375.3457" y1="95.89" y2="95.89"/><ellipse cx="959.96" cy="109.5384" fill="#84BE84" rx="3" ry="3" style="stroke:#038048;stroke-width:1;"/><text fill="#000000" font-family="sans-serif" font-size="14" lengthAdjust="spacing" textLength="401.3857" x="968.96" y="112.8851">calculatePrice(startTime : Date, endTime : Date) : double</text></g><!--class TimeBasedPricing--><g id="elem_TimeBasedPricing"><rect codeLine="62" fill="#F1F1F1" height="80.5938" id="TimeBasedPricing" rx="2.5" ry="2.5" style="stroke:#181818;stroke-width:0.5;" width="427.3857" x="948.96" y="270.53"/><ellipse cx="1095.8506" cy="286.53" fill="#ADD1B2" rx="11" ry="11" style="stroke:#181818;stroke-width:1;"/><path d="M1098.8194,292.1706 Q1098.2413,292.4675 1097.6006,292.6081 Q1096.96,292.7644 1096.2569,292.7644 Q1093.7569,292.7644 1092.4288,291.1238 Q1091.1163,289.4675 1091.1163,286.3425 Q1091.1163,283.2175 1092.4288,281.5613 Q1093.7569,279.905 1096.2569,279.905 Q1096.96,279.905 1097.6006,280.0613 Q1098.2569,280.2175 1098.8194,280.5144 L1098.8194,283.2331 Q1098.1944,282.655 1097.6006,282.3894 Q1097.0069,282.1081 1096.3819,282.1081 Q1095.0381,282.1081 1094.3506,283.1863 Q1093.6631,284.2488 1093.6631,286.3425 Q1093.6631,288.4363 1094.3506,289.5144 Q1095.0381,290.5769 1096.3819,290.5769 Q1097.0069,290.5769 1097.6006,290.3113 Q1098.1944,290.03 1098.8194,289.4519 L1098.8194,292.1706 Z " fill="#000000"/><text fill="#000000" font-family="sans-serif" font-size="14" lengthAdjust="spacing" textLength="125.1045" x="1116.3506" y="291.3767">TimeBasedPricing</text><line style="stroke:#181818;stroke-width:0.5;" x1="949.96" x2="1375.3457" y1="302.53" y2="302.53"/><rect fill="#FFFFFF" fill-opacity="0.00000" height="6" style="stroke:#C82930;stroke-width:1;" width="6" x="956.96" y="313.1784"/><text fill="#000000" font-family="sans-serif" font-size="14" lengthAdjust="spacing" textLength="137.9834" x="968.96" y="319.5251">hourlyRate : double</text><line style="stroke:#181818;stroke-width:0.5;" x1="949.96" x2="1375.3457" y1="326.8269" y2="326.8269"/><ellipse cx="959.96" cy="340.4753" fill="#84BE84" rx="3" ry="3" style="stroke:#038048;stroke-width:1;"/><text fill="#000000" font-family="sans-serif" font-size="14" lengthAdjust="spacing" textLength="401.3857" x="968.96" y="343.822">calculatePrice(startTime : Date, endTime : Date) : double</text></g><!--reverse link PricingStrategy to TimeBasedPricing--><g id="link_PricingStrategy_TimeBasedPricing"><path d="M1151.4132,138.56 C1147.0432,177.91 1148.76,227.22 1152.58,270.03 " fill="#FFFFFF" fill-opacity="0.00000" id="PricingStrategy-backto-TimeBasedPricing" style="stroke:#181818;stroke-width:1;"/><polygon fill="#FFFFFF" fill-opacity="0.00000" points="1153.4,120.67,1145.4499,137.8978,1157.3766,139.2223,1153.4,120.67" style="stroke:#181818;stroke-width:1;"/></g><!--reverse link PricingStrategy to TimeBasedPricing--><g id="link_PricingStrategy_TimeBasedPricing"><path codeLine="75" d="M1174.5534,138.5467 C1179.1834,177.8967 1177.37,227.22 1173.32,270.03 " fill="#FFFFFF" fill-opacity="0.00000" id="PricingStrategy-backto-TimeBasedPricing-1" style="stroke:#181818;stroke-width:1;"/><polygon fill="#FFFFFF" fill-opacity="0.00000" points="1172.45,120.67,1168.5945,139.2478,1180.5123,137.8455,1172.45,120.67" style="stroke:#181818;stroke-width:1;"/></g><!--reverse link ParkingLot to ParkingSpot--><g id="link_ParkingLot_ParkingSpot"><path codeLine="68" d="M368.9377,179.2764 C351.7377,204.4364 339.77,221.93 323.44,245.8 " fill="#FFFFFF" fill-opacity="0.00000" id="ParkingLot-backto-ParkingSpot" style="stroke:#181818;stroke-width:1;"/><polygon fill="#181818" points="375.71,169.37,369.0217,172.0658,368.9377,179.2764,375.626,176.5806,375.71,169.37" style="stroke:#181818;stroke-width:1;"/><text fill="#000000" font-family="sans-serif" font-size="13" lengthAdjust="spacing" textLength="79.2568" x="356.65" y="212.1469">composition</text></g><!--reverse link ParkingLot to PaymentSystem--><g id="link_ParkingLot_PaymentSystem"><path codeLine="69" d="M468.3331,180.4645 C482.4631,214.7445 493.74,242.11 505.28,270.11 " fill="#FFFFFF" fill-opacity="0.00000" id="ParkingLot-backto-PaymentSystem" style="stroke:#181818;stroke-width:1;"/><polygon fill="#181818" points="463.76,169.37,462.3484,176.4416,468.3331,180.4645,469.7447,173.3929,463.76,169.37" style="stroke:#181818;stroke-width:1;"/><text fill="#000000" font-family="sans-serif" font-size="13" lengthAdjust="spacing" textLength="29.7832" x="482.65" y="212.1469">uses</text></g><!--reverse link ParkingSpot to Vehicle--><g id="link_ParkingSpot_Vehicle"><path codeLine="70" d="M200.3142,384.3047 C190.5642,393.9847 189.41,395.62 180.65,405.57 C165.49,422.79 150.27,443.21 138,460.65 " fill="#FFFFFF" fill-opacity="0.00000" id="ParkingSpot-backto-Vehicle" style="stroke:#181818;stroke-width:1;"/><polygon fill="#FFFFFF" fill-opacity="0.00000" points="208.83,375.85,201.7539,377.2387,200.3142,384.3047,207.3903,382.9159,208.83,375.85" style="stroke:#181818;stroke-width:1;"/><text fill="#000000" font-family="sans-serif" font-size="13" lengthAdjust="spacing" textLength="78.9331" x="181.65" y="418.6369">aggregation</text></g><!--link Vehicle to Ticket--><g id="link_Vehicle_Ticket"><path codeLine="71" d="M148.34,541.46 C171.09,565.93 200.86,597.93 226.94,625.99 " fill="#FFFFFF" fill-opacity="0.00000" id="Vehicle-Ticket" style="stroke:#181818;stroke-width:1;"/><text fill="#000000" font-family="sans-serif" font-size="13" lengthAdjust="spacing" textLength="39.2412" x="200.65" y="592.5269">linked</text></g><!--link Ticket to ParkingSpot--><g id="link_Ticket_ParkingSpot"><path codeLine="72" d="M285.47,626.01 C284.18,556.33 282.13,445.69 280.84,376.01 " fill="#FFFFFF" fill-opacity="0.00000" id="Ticket-ParkingSpot" style="stroke:#181818;stroke-width:1;"/><text fill="#000000" font-family="sans-serif" font-size="13" lengthAdjust="spacing" textLength="57.8652" x="285.65" y="505.5769">assigned</text></g><!--link PaymentSystem to Ticket--><g id="link_PaymentSystem_Ticket"><path codeLine="73" d="M581.41,351.47 C613.19,376.3 649.23,411.37 666.65,452.57 C683.43,492.23 691.25,514.11 666.65,549.46 C598.53,647.33 454.03,677.3 364.16,686.37 " fill="#FFFFFF" fill-opacity="0.00000" id="PaymentSystem-Ticket" style="stroke:#181818;stroke-width:1;"/><text fill="#000000" font-family="sans-serif" font-size="13" lengthAdjust="spacing" textLength="87.5659" x="683.65" y="505.5769">calculates for</text></g><!--link PaymentSystem to Payment--><g id="link_PaymentSystem_Payment"><path codeLine="74" d="M520.19,351.27 C519.09,380.7 517.59,421.03 516.43,452.27 " fill="#FFFFFF" fill-opacity="0.00000" id="PaymentSystem-Payment" style="stroke:#181818;stroke-width:1;"/><text fill="#000000" font-family="sans-serif" font-size="13" lengthAdjust="spacing" textLength="65.0127" x="519.65" y="418.6369">processes</text></g><!--SRC=[fLJ1Sfim4Btp5RhPRieFCBqqJZln96qzjkEx8ZPOOo4nal2KQVllNI491AIdSW6zVNgxUhjYHRPA0zaAQWoOZBatsLDzvR9wLfRyoWW-EP6q1bAGezKO21WjImr8dy5MMIgEZR8kmgMDx1lbWhuAc8Vko1kNvNUWA6PTS7s62sS2DaWAfJWua1j40Y4bdZYxGkHe441Ddsdj0rwhgm6J_iccvtIquQ065xjoKhc06uW9miqFnjg6WoE-AeNPP4YDkhoIymA7kcfrWnZSZ9K4QAX2S0RIm5vGkx3zvhcdhd6XyxXoSY3REiM2ulRpeN_Vxvw-z1-dmylsoMrOHLl8iJCMwi6Q7lHO4BaZZ0hMkfg-0YJ6bgh5liR-QCLmAeB0EhmtgUi-NpmhhLMBoubCZctkMIVUpzq3vfm6le6zg7BigbyF5apGmOJZOtJZeVzusU-y1_uiXCgIx3LdpcnVR0Z4Mcs_dCr7QCZOZ6IKtXbX35YgtpaPo385HyDyHJW425VTiXkE0EkvwiUPODAfGTg5x_6cb247WPyMT_qhPqukgjMYE_YndFJzlwfPaGFWNgwakV36PCaVw4EUJovgGPYg6sMuOo-9wTWMf7K_jNItGj9vw1UjAWrLdpUBA192qmkyXl8APHRMYqByNKV2D6sgCBXYo9lIIsAy34MyDwxUcVUVVlUAqqxz1G00]--></g></svg>